<?xml version="1.0" encoding="utf-8"?>

<!DOCTYPE svg PUBLIC "-//W3C//DTD SVG 1.1//EN" "http://www.w3.org/Graphics/SVG/1.1/DTD/svg11.dtd">
<svg version="1.1" id="Layer_1" xmlns="http://www.w3.org/2000/svg" xmlns:xlink="http://www.w3.org/1999/xlink" x="0px" y="0px"
	 viewBox="627.1155 -90.0315 1305.7689 1780.063" enable-background="new 627.1155 -90.0315 1305.7689 1780.063"
	 xml:space="preserve">
<g>
	<g>
		<path d="M1376.2661,1359.5726c-10.4846-3.7753-21.1687-6.9971-31.6863-10.6729c-10.7506-3.9525-21.1355-8.9014-32.1073-12.2228
			c-10.8279-3.4655-21.6338-6.9973-32.4725-10.4294c-0.0332,55.3098,0,110.6198-0.0222,165.9183l0.0333,0.0211
			c0-0.0076,0-0.0153,0-0.0228c20.3162-3.0889,40.3776-7.6283,60.2509-12.8318c2.9783-0.4761,3.8417-3.6978,5.3143-5.8679
			c9.3995-18.3009,18.2678-36.9121,25.6302-56.1321c1.528-6.6096,2.2476-13.3634,3.5098-20.0062
			c2.5686-12.1564,1.5387-24.6671,2.1367-36.9895L1376.2661,1359.5726z"/>
		<path d="M1654.5137,63.074c9.7207-20.3272,16.585-41.85,24.036-63.074c6.809,13.6068,11.924,27.9222,17.2272,42.16
			c3.7311,10.85,9.4329,20.8586,14.1603,31.2768c5.0929,9.8314,8.3812,20.449,12.4332,30.7232
			c10.1083,26.5161,19.663,53.2315,29.882,79.7144c3.266,9.3886,7.8718,18.3786,9.61,28.2322
			c1.4614,7.0525,3.266,14.0386,4.4729,21.1354c-4.7941-4.1739-9.3223-8.6357-14.0276-12.9093
			c-8.7354-7.0525-12.8761-17.9579-20.2386-26.2171c-6.2885-6.6429-12.5328-13.3189-18.8214-19.9618
			c-7.905-8.7132-15.2452-17.9247-23.1946-26.5936c-8.0712-6.6096-16.4744-12.8318-24.6561-19.3086
			c-9.1118,8.9457-18.6554,17.4707-26.9701,27.2025c-15.0571,15.4557-27.1914,33.3582-40.5325,50.2311
			c-6.2664,9.0232-11.6361,18.6332-17.5261,27.889c-8.1597,13.2082-16.4965,26.3057-24.7668,39.4475
			c-4.196,5.6243-5.126,12.7433-7.3845,19.209c-3.554,10.839-8.5693,21.1354-12.2893,31.9079
			c-3.4985,15.024-6.8865,30.0811-10.3075,45.1272c-2.3694,11.1157-5.6133,22.0764-6.6761,33.4247
			c-2.6903,19.4193-4.9711,38.9051-6.355,58.4572c0.9077,8.7465,0.9965,17.6036,2.3361,26.2946
			c10.6617,11.1821,21.4675,22.2426,32.0961,33.4689c1.705,2.1479,4.5836,2.2476,7.0414,2.9117
			c9.8204,2.181,19.5521,4.6944,29.3837,6.8423c6.975-6.0671,13.031-13.2084,19.9175-19.4083
			c5.4028-4.2071,10.9497-8.215,16.3969-12.3668c4.6942,9.7318,9.8203,19.2643,14.3707,29.0736
			c3.0447,11.7136,5.0707,23.7039,7.9161,35.4839c-14.6254-1.9928-29.4058-3.0225-43.8762-6.0118
			c-15.5-3.2772-31.2656-5.0485-46.965-6.975c-7.2186,0.4097-14.3596,1.7493-21.5227,2.6682
			c-0.6643-5.7572-1.2069-11.5253-2.1146-17.2383c-5.4471-9.4993-10.4293-19.3972-17.6257-27.7339
			c-4.6057-6.3993-10.6176-11.5364-16.0315-17.194c-2.181-2.314-4.5614-4.4395-7.3402-5.9675
			c-4.7385-2.6793-9.0453-6.2554-14.3042-7.894c-4.174-1.4393-8.359-2.8564-12.4996-4.351
			c3.3989-7.285,6.7203-14.6032,10.075-21.9104c2.325-5.2257,5.0707-10.2964,6.5653-15.8432
			c3.2882-11.16,6.3329-22.4307,10.8944-33.159c13.1639-32.6054,21.6226-67.1151,24.7556-102.134
			c0.9633-12.9425,3.7533-25.6526,6.4215-38.3182c9.8204-24.1911,20.0946-48.2494,31.5426-71.7097
			c-1.705,11.5475-2.8896,23.2057-5.6354,34.5761c-1.1183,5.4361-2.5575,10.8168-3.4211,16.3082
			c4.0081-5.2368,7.6727-10.7393,11.3483-16.2197c13.9723-25.3868,27.8447-50.8511,42.78-75.6954
			c9.4994-17.1275,22.475-31.9522,35.0521-46.8543C1639.235,89.5126,1647.0736,76.404,1654.5137,63.074z"/>
		<path d="M1794.7555,220.7977c6.3661,6.9418,10.5621,15.4779,15.6993,23.3164c3.7865,7.1189,8.5029,13.9168,10.4624,21.844
			c2.0483,7.8496,6.0894,15.4004,5.0598,23.7372c1.0627,26.3832-6.2998,52.2129-15.4005,76.703
			c-8.7574,13.8171-18.4006,27.1472-25.4865,41.9385c-2.0703,7.3071-4.2181,14.6143-5.9232,21.9991
			c0.4208,5.8679,1.5944,11.6693,2.5244,17.4708c2.6017,6.7425,8.0156,12.2339,9.5214,19.4525
			c2.5243,9.92,5.5358,19.7293,7.8828,29.6936c3.2993,27.0033,6.7646,53.9733,11.0161,80.8437
			c1.7826,15.3339,5.8457,30.2472,8.8571,45.3486c1.3508,12.8318,1.849,25.7744,4.5505,38.429
			c2.2252,9.92,2.0149,20.6039,6.986,29.7267c9.5215,21.0247,19.364,41.9387,27.114,63.7161
			c2.015,6.0893,5.0597,11.9351,5.8236,18.3786c1.0516,7.2297,2.3027,14.4371,3.3989,21.6779
			c-7.8497-9.5768-14.8911-19.84-20.9694-30.6125c-6.1777-8.5029-13.4629-16.1642-19.53-24.7446
			c-6.5432-8.7686-12.8761-18.3232-22.7849-23.6154c-7.3848-3.4432-15.5554-4.6278-23.394-6.6207
			c-8.835-2.314-18.0132-2.7014-26.9811-4.174c-4.9932-1.4725-9.7096-3.7643-14.5479-5.6132
			c12.5883-7.1078,25.4644-14.0386,39.4918-17.9025c4.8271-1.1625,9.7318-3.2881,12.4885-7.6393
			c1.085-3.3547,1.9264-6.809,2.5686-10.2744c-1.705-6.8975-7.7389-11.0493-12.9978-15.179
			c-7.5287-4.3843-15.5776-7.7722-23.8036-10.5732c-10.4072-5.2811-19.3529-12.9868-27.6233-21.1243
			c-5.3253-6.0671-10.4514-12.8318-17.9357-16.2861c-8.3147-1.7272-16.6737-3.2328-24.944-5.1925
			c-9.8759-0.5647-19.054,3.6204-28.1879,6.7535c1.9264-6.1004,5.7238-11.2929,8.9235-16.7622
			c2.1368-4.0521,6.3661-6.2332,9.7318-9.1228c0.1218-6.0561-0.6753-12.3004,1.8821-17.9911
			c1.2733-9.9311-0.8303-19.8843-1.9153-29.7379c17.98,8.8572,37.1226,14.8911,55.7227,22.2646
			c-5.2589,2.635-10.4958,5.3254-15.788,7.8607c-4.5614,1.8711-9.3553,3.0889-14.0275,4.6057
			c1.6163,4.0521,2.9449,8.2482,4.8381,12.2007c4.0854,3.0446,8.5471,5.6132,12.9094,8.2925
			c3.9746-0.2657,8.2371-0.3542,12.0236-1.6054c4.1296-3.9857,8.0601-8.2261,11.9017-12.4996
			c8.4697-14.6807,14.8247-30.7122,17.6921-47.4743c1.6385-7.75,3.0447-15.5554,4.3954-23.3718
			c0.8303-3.9303-0.9189-7.7278-1.6385-11.5253c-1.0961-3.5982-0.9744-7.8718-3.9193-10.5843
			c-3.554-3.8197-6.7867-7.9382-10.5399-11.5475c-4.8162-3.0225-9.8536-5.7128-14.9023-8.3147
			c-9.4329-3.4875-19.0427-6.4878-28.531-9.8093c6.6428-8.1265,14.7029-14.9574,20.9915-23.3718
			c7.4954-8.9457,13.5847-18.9321,20.15-28.5422c11.326-20.1057,22.1539-40.4772,33.3804-60.6272
			c7.2629-14.7693,12.4998-30.4132,16.7068-46.3008c1.063-6.1668,2.2697-12.3225,3.1333-18.5226
			C1800.1694,253.3256,1797.4126,237.0395,1794.7555,220.7977z"/>
		<path d="M1680.5537,290.0717c3.2992,5.6132,6.3107,11.4368,9.1117,17.3268c2.9561,8.7464,5.9454,17.4818,9.2114,26.1175
			c1.3839,5.6021,1.7161,11.4257,2.4578,17.1386c-0.5645,5.1372-2.1034,10.1304-3.0999,15.19
			c-0.1661,2.0482-2.1257,3.0446-3.4764,4.2736c-3.3657,2.5353-6.4989,5.3807-9.9532,7.7943
			c-13.1528,0.321-26.3279,0.0997-39.4807,0.0997c-12.5771-1.5721-24.7891-6.2886-37.6207-5.5468
			c-8.4807,0.4096-16.8286-0.9632-25.1654-2.181c-4.2072-7.2074-8.6801-14.26-12.7322-21.5561
			c-1.2068-4.3622-1.0961-9.0122-1.9707-13.4629c4.5836,2.7346,8.7131,6.1778,13.3743,8.7797
			c5.0154,1.5943,10.1304,3.1553,15.3672,3.8972c18.0797,1.1293,36.1482,2.6461,54.2611,2.79
			c3.8197-1.7382,6.6206-5.3918,9.8425-8.0932c3.7421-4.8825,6.2997-10.5954,9.6322-15.7657
			c2.4578-3.6536,3.1664-8.0489,4.351-12.2007C1676.8889,306.5349,1678.5386,298.2535,1680.5537,290.0717z"/>
		<path d="M1443.193,307.8524c5.8016-4.34,11.5697-8.7354,17.4154-13.02c2.3914,19.1536,5.0707,38.6504,2.2031,57.9037
			c-0.631,8.1818-3.3324,15.9982-5.115,23.9697c-6.3328,18.7772-15.7103,36.3143-24.0471,54.239
			c-3.9525-5.4582-7.8164-10.9718-11.5807-16.5518c-2.8896-5.3586-5.0265-11.0936-7.6504-16.585
			c-2.5243-4.9048-2.5464-10.529-3.8196-15.7879c5.8567,1.9597,11.6692,4.1407,17.7142,5.5246
			c3.3657-0.8414,6.3108-2.8675,9.455-4.2957c1.24-11.9351,2.6129-23.87,1.9375-35.8825c-2.6017-2.9782-6.2443-5.1482-9.6321-7.1854
			c-3.7975-0.5646-7.6836-0.9854-11.5144-0.7971c-4.3953,3.0668-8.7021,6.2775-12.9756,9.4993
			c-4.0743,4.174-6.2112,9.8979-10.1747,14.1714c-3.5096,2.1589-7.3071,3.7864-10.9054,5.7682
			c-7.2407,4.2848-15.9318,4.7829-23.3496,8.6469c-5.2922,2.8011-11.5365,4.174-15.788,8.6357
			c-12.6879,10.8058-22.6964,24.4568-30.6567,39.0268c-8.7021,20.2718-15.0571,41.6508-17.5925,63.6054
			c-0.8969,10.0861-4.5724,19.6296-7.3071,29.3061c-0.5979-10.0418-1.1294-20.0836-1.4836-30.1364
			c1.3507-17.6479,3.3103-35.2625,6.233-52.7333c1.4946-7.905,2.923-15.8211,3.8641-23.8147
			c0.5093-3.1775,0.4871-6.4879,1.6274-9.5325c7.5286-13.6732,17.5372-25.8408,24.5343-39.8239
			c8.4142-14.9686,15.8875-30.4575,22.2979-46.3893c1.0518-2.8896,2.6682-5.5579,4.816-7.7943
			c-0.4539,17.9358-4.6721,35.4397-7.6836,53.0432c2.5465,0.3432,5.1593,1.8489,7.739,0.8304
			c4.827-1.705,9.9089-3.0004,14.1603-5.9786c6.5764-4.3511,13.6511-7.8718,20.6039-11.5918
			c4.4508-2.3693,7.418-6.7314,11.8354-9.145c7.4178-4.041,15.1014-7.5839,22.3199-11.9461
			C1428.2023,317.9939,1436.052,313.4324,1443.193,307.8524z"/>
		<path d="M1636.6665,407.1743c8.7795-6.0671,17.1163-12.7654,25.9292-18.7772c-1.7825,5.6797-3.9635,11.2265-5.9343,16.8507
			c-1.8821,3.4985,2.004,6.2997,3.244,9.311c3.4764-0.4207,7.13-0.0997,10.4846-1.2289
			c13.3301-7.1078,26.4608-14.5811,39.8905-21.4896c-3.1886,5.7128-6.3219,11.5032-10.1083,16.8507
			c-11.6029,14.5368-23.5046,28.9075-36.7351,42.005c-2.0149,3.1775-3.0557,6.9529-3.9746,10.5843
			c0.1882,9.2225,0.5979,18.445,1.1183,27.6564c0.7527,12.0789-0.454,24.1579-0.908,36.2258
			c-2.8121-5.3586-5.5911-10.7614-7.9603-16.3193c-0.5647-5.27,0.3433-10.6065-0.5536-15.8432
			c-0.786-4.7165-1.7051-9.4107-2.48-14.1272c-0.4651-2.5575-0.6975-5.3032-2.3472-7.4179
			c-3.8086-5.4471-7.3625-11.0825-11.3926-16.3525c-3.3435-1.9597-6.9307-3.565-10.5731-4.8604
			c-9.4883,1.6496-16.6514,8.4033-24.955,12.6657c-5.6797,1.561-11.4479,2.7679-17.194,4.0189
			c-6.1558,0.5425-12.3557,0.1329-18.5115,0.2104c6.7758-6.5211,13.1086-13.5736,20.6261-19.2864
			c10.0419-8.0046,20.0615-16.0425,29.7711-24.4458C1621.0004,417.1607,1629.1046,412.5107,1636.6665,407.1743z"/>
		<path d="M1379.8534,441.4515c4.7385-10.0196,9.6875-19.9286,15.0128-29.6494c3.3879,9.2668,6.2775,18.7108,9.6764,27.9776
			c5.9122,11.9018,12.533,23.4382,19.3418,34.8418c2.8345,4.6057,4.8604,9.7208,8.0822,14.0718
			c8.4254,6.5322,17.515,12.1675,26.5714,17.7807c10.5955,5.591,21.5782,10.5511,31.764,16.8618
			c2.0925,2.8121,4.0078,5.8234,5.5024,9.0121c1.2511,4.6611,2.0039,9.4661,2.79,14.2379
			c-1.1183,5.3363-3.0447,10.4736-4.4397,15.7546c-0.9965,4.1075-3.7753,7.3957-5.89,10.9608
			c-3.9746,6.5875-8.7242,12.6436-13.0864,18.9544c-5.27,8.6357-10.0972,17.6257-13.02,27.3465
			c-0.0221,4.0743,0.4429,8.1375,0.62,12.2118c3.8086-1.0407,7.7279-1.6607,11.4922-2.8564
			c6.9307-6.3218,13.2968-13.2857,20.4933-19.3307c5.5579-4.03,11.005-8.2261,16.6846-12.0789
			c4.6389-2.2475,9.6433-3.6536,14.4261-5.5911c5.3696-2.3361,11.2819-2.6461,16.9836-3.72
			c5.7572-0.8746,11.4811-2.1478,17.2825-2.7457c13.6622-0.0665,27.3354-0.4207,40.9534,0.9854
			c9.0233,1.1071,18.3564,0.4539,27.0808,3.4321c-7.7279,4.9268-15.2122,10.2743-23.1615,14.8358
			c-6.665,2.7236-13.0421,6.51-20.2607,7.595c-8.1707,1.694-16.3746,3.1996-24.5121,5.0375
			c-5.2811,2.159-11.1268,3.9968-14.7029,8.7575c-8.5471,8.2814-14.7915,18.4561-21.7222,28.0439
			c-13.5404,21.5118-28.0551,42.5919-38.2518,65.9747c-1.4614,5.5911-2.9229,11.1932-4.0079,16.8729
			c0.4761,12.9093,1.8601,25.7744,3.1776,38.6283c0.321,7.8718-0.4761,15.7325-0.5094,23.6043
			c11.5918-2.7014,21.7111-9.4772,32.9597-13.1529c9.1339-1.9264,18.1793-4.3843,27.3796-5.9232
			c8.9789,0.5535,17.9137,1.86,26.8925,2.5021c-4.2845,3.8307-8.7574,7.4622-13.0974,11.2264
			c-2.1812,1.7272-2.9783,4.5061-4.2072,6.8975c-1.3175,3.0446-3.1444,5.9122-4.03,9.1339
			c3.2771,10.1193,9.0342,19.1204,14.4814,28.1879c-8.1486,0.631-16.275,1.4393-24.4347,1.9375
			c-12.9093,0.0222-25.8186-0.465-38.7168-0.3875c-10.4957,1.3175-21.0801,2.4247-31.4763,4.2404
			c-8.8239,4.4064-17.6367,8.8681-26.3168,13.5403c-6.6761,6.2111-12.7986,13.0422-19.2644,19.5079
			c-9.2778,8.9346-16.1532,19.9507-24.645,29.5718c-4.7828,4.5281-9.8203,8.8017-14.5699,13.3632
			c-2.4357-2.8342-5.1482-5.425-7.4622-8.3589c-1.9042-4.196-3.4764-8.5805-4.8381-12.9756
			c-0.0997-9.92-0.288-20.0726,3.3214-29.4943c2.0481,3.8307,3.41,8.0378,5.7461,11.7136c3.3435,3.0889,7.2406,5.5357,10.85,8.3147
			c6.5764-9.0453,13.4739-17.8583,20.6814-26.4054c6.7758-8.0157,12.0015-17.3378,19.8511-24.4125
			c4.816-4.7718,9.7761-9.4108,14.4814-14.2932c3.4321-4.4396,6.0782-9.4218,9.1782-14.0828
			c2.4247-3.1332,1.1293-7.3071,1.4393-10.9386c0.321-13.175-0.4983-26.3389-1.6276-39.4586
			c-1.1846-6.82-2.4578-13.6179-3.7421-20.4047c-1.3065-5.1703,1.2842-10.1968,2.0039-15.2454
			c1.8932-11.0715,6.4547-21.379,10.1968-31.8857c9.7649-14.0275,21.5782-26.5161,32.7382-39.4365
			c-9.8536,5.27-18.6997,12.4996-29.3282,16.2418c-4.9379,2.1257-10.075,3.7864-14.8579,6.2111
			c-2.7899,2.3582-5.0485,5.259-7.6171,7.8386c-4.7386,4.4728-7.3182,10.5732-10.6176,16.0757
			c-2.4247,5.9232-4.1851,12.1343-5.9675,18.29c-0.5093,12.7211-1.4836,25.4643-4.2072,37.9307
			c-2.4468-5.3586-4.5061-10.8943-6.6428-16.3746c-1.9708-6.8864-2.8344-14.0275-4.4729-20.9915
			c-1.2732-4.9489-0.465-10.0529-0.4095-15.0682c0.1549-4.1296-0.2325-8.3702,1.1182-12.3447
			c1.9707-6.1115,2.934-12.5993,5.9564-18.3343c2.4911-4.9046,4.6168-9.9865,7.2629-14.8025
			c4.0964-6.4103,8.6245-12.5439,12.71-18.9543c-11.1268,1.9597-22.1318,4.6943-33.3805,5.9011
			c-7.595,0.9189-15.179,2.0814-22.7739,2.9118c-5.1039-0.9743-9.9976-2.8232-15.0239-4.0632
			c-6.7867-1.4393-11.6139-6.7979-17.205-10.4846c12.6436-1.1847,25.3203-1.9486,37.975-2.9673
			c4.3511-2.9893,8.0601-6.8422,12.2008-10.1193c3.4542-2.6572,5.0375-6.8422,7.3292-10.4072
			c3.3768-5.3918,5.2922-11.5253,8.3147-17.1054c3.6757-3.4321,7.3846-7.5618,12.6104-8.4033
			c6.3329-1.9597,12.8539-3.1775,19.4083-4.1518c5.9674-0.62,10.9828-4.174,16.2528-6.7093
			c5.5247-4.816,10.1858-11.005,11.6582-18.3453c-1.2732-4.1296-2.8342-8.2039-4.7053-12.09
			c-3.0336-3.2661-6.5542-6.1115-10.0529-8.8571c-11.1047-0.4318-21.7775,3.3547-32.4393,5.9786
			c-3.2439,0.8857-6.6539,0.5536-9.9642,0.5425c8.1595-5.6686,16.0314-11.7357,23.3496-18.4893
			c-8.9568-5.4915-17.3932-11.8575-24.8997-19.1979c-7.0414-11.625-13.6731-23.5157-19.6517-35.7276
			c-2.7346-4.5725-3.576-9.8757-5.2147-14.8689c-6.2,7.5065-10.2189,16.3636-13.7728,25.3425
			c-5.0929,17.3932-9.6543,35.5836-7.2961,53.8293c0.2103,7.9714,4.6279,14.9132,7.2518,22.2426
			c4.0853,7.4621,8.4586,15.0018,10.4182,23.3386c-0.8636,7.6171-2.3583,15.345-6.3661,21.9989
			c-2.8121,2.1036-5.89,3.8528-8.9569,5.5579c-3.7864,0.3765-7.7278,0.5646-11.47-0.1107
			c-4.2515-3.1111-8.6577-6.1003-12.566-9.6211c-5.6797-14.2379-7.7832-29.5164-12.5883-44.0311
			c-1.8046,0.155-3.7421-0.2546-5.4139,0.4982c-4.8492,10.8943-7.0636,22.7075-10.3186,34.1222
			c-1.5278,12.2783-5.0264,24.1468-8.1154,36.0928c-1.5721,4.639-0.1661,9.4993-0.1107,14.249
			c0.0775,11.9904,4.5283,23.3275,6.0007,35.1518c0.8636,9.3111,5.5024,17.5815,9.3444,25.9293
			c10.6064,15.0018,23.7039,28.7857,29.8264,46.4227c1.1957,6.5764,2.314,13.1639,3.4985,19.7515
			c0.6864,3.41-0.5203,6.7868-1.0186,10.1525c-1.2511,6.1779-2.1257,12.4222-3.5317,18.5779
			c-7.1743,23.3054-18.29,45.1161-29.8376,66.5172c-4.5282,7.6172-7.141,16.1422-9.9753,24.4789
			c-0.8082,12.1232-0.1771,24.3682,2.7457,36.2036c2.1921,10.7393,4.8936,21.3569,8.071,31.8525
			c3.2772,11.5696,5.9343,23.2943,9.1672,34.8751c-8.7244-8.2151-17.504-16.4191-25.2872-25.5641
			c-5.1593-6.3328-12.3004-10.6174-17.5039-16.895c-2.2144-2.5463-4.4065-5.1039-6.6541-7.595
			c6.0229-6.045,12.6658-11.5253,18.578-17.6146c-0.3654-10.4072-1.4725-20.7811-3.4655-31.0002
			c-1.2732-4.1518,1.4725-7.8607,2.7015-11.6361c2.491-6.809,5.58-13.4186,7.6835-20.3382
			c-1.5056-10.6396-3.0446-21.3125-4.8049-31.919c-4.7496-8.8682-10.5955-17.1718-14.9132-26.3168
			c-3.9193-5.7239-2.2697-12.9426-3.2661-19.4083c-1.0518-5.5358,0.6864-10.9385,1.6606-16.3193
			c0.3986-4.6278,4.484-7.4732,6.964-11.0493c2.2365,2.015,4.6278,3.875,6.665,6.1115c2.8121,4.4619,3.4875,10.1082,6.5432,14.4261
			c9.6653,7.451,18.9875,15.6439,30.4242,20.316c2.2476-5.2811,4.484-10.5511,6.8976-15.7546
			c-2.8564-6.1668-5.0819-12.7211-9.5215-17.9911c-6.2997-9.7429-14.5699-17.8914-22.1871-26.5604
			c-6.7535-7.6172-14.2932-14.5258-20.9583-22.1982c-4.6279-9.1229-9.1006-18.3453-13.4851-27.59
			c-1.2622-6.7093-1.2068-13.5958-2.0482-20.3715c-1.0518-5.6021,1.7161-10.8943,3.2882-16.131
			c2.2916,6.9418,4.329,13.9611,6.7758,20.8586c4.0964,6.7093,9.1671,12.8097,14.6254,18.4672
			c1.5389-1.9042,3.4321-3.576,4.6389-5.7239c-1.0074-5.8125-2.3029-11.5696-3.3546-17.3601
			c-1.5721-11.1047-7.6172-20.8364-10.8944-31.4208c-0.155-6.6538-0.2878-13.3411,0.1107-19.9839
			c2.0482-13.3521,4.0964-26.7043,6.4768-39.99c1.5056-10.9275,1.8489-21.9768,3.1996-32.9154
			c1.074-7.4067,2.48-14.7582,3.5872-22.1539c0.8414-5.2368-1.4725-10.7614,0.8525-15.7546
			c7.2186-19.4968,15.2897-38.6836,21.7332-58.4572c-1.0961,15.5-2.3804,30.989-3.41,46.4779
			c0.8856,5.0375,2.0814,10.0418,3.3657,14.9907c2.2917,3.8639,5.0596,7.4621,7.9381,10.9164
			c4.9933,4.6389,10.2744,8.9901,15.4115,13.5072c-0.4983-8.7465-1.6385-17.4375-1.8379-26.184
			c1.1958-7.0746,3.1554-14.0164,4.6168-21.0357c0.6974-4.185,3.3878-7.5729,5.3142-11.2375
			C1370.7526,458.2579,1375.8345,450.1314,1379.8534,441.4515z"/>
		<path d="M1609.8514,627.3963c11.3151-0.1771,22.7407-3.0336,33.9672-0.4982c6.51,1.24,13.1971,1.694,19.5963,3.4764
			c8.0934,3.3768,16.5076,6.056,24.313,10.0861c14.9575,8.5582,30.1697,16.6514,45.548,24.4347
			c-6.0562,1.6607-12.1897,2.9893-18.2679,4.5283c-7.5508,2.181-15.4889,0.8414-23.2168,1.2289
			c-9.134,0.321-18.124-4.8271-27.1582-1.7937c-10.839,1.5169-20.9805,5.569-31.0886,9.5657
			c-1.2068,6.6207-2.7014,13.1861-4.03,19.7958c8.0599,10.4514,16.7621,20.3936,26.2505,29.5718
			c11.1931,3.3325,22.6078,6.0118,33.9229,8.9568c10.2964,0.8746,20.6481,1.1957,30.9889,1.6607
			c18.2125,0.9854,36.4141,2.3804,54.5491,4.3068c-20.1501,5.0818-40.3112,10.2078-60.6826,14.3707
			c-24.634,2.3472-49.3676,3.7643-74.1122,4.34c10.1191,4.9268,19.8511,10.8832,30.7786,13.9057
			c6.1003,1.6718,11.8906,4.9932,18.3785,4.794c8.9126,0.0553,17.7919,1.1182,26.7153,1.0186
			c21.0912-3.3325,42.1932-6.7204,63.3618-9.5879c-4.0852,3.3657-8.2039,6.7093-12.5549,9.6986
			c-22.0432,8.1929-44.6289,14.8911-67.2146,21.39c-11.5807,2.9008-22.8959,6.9086-34.7422,8.5915
			c-5.0487,0.93-10.1415,1.6053-15.1569,2.6572c-4.3732,1.4614-8.4476,3.6868-12.699,5.4471
			c3.8972,2.325,7.6836,4.9047,11.8132,6.8311c6.0117,1.3839,12.1122,3.1,18.3564,2.7568
			c10.5511-0.2546,21.1133-0.1218,31.6532-0.7307c11.0383-1.6829,22.0543-3.5096,33.0704-5.3696
			c8.0378-2.3361,15.9429-5.115,23.9365-7.6061c-1.6608,9.7097-3.4987,19.3972-4.8604,29.1511
			c1.871,4.34,4.4617,8.3478,6.6539,12.5551c1.2731,3.1664,4.7938,4.1075,7.4841,5.7571
			c11.6915,6.4879,23.5048,12.7654,35.1077,19.4304c-18.4894-2.0705-36.9675-4.185-55.4901-5.8789
			c0.0333,7.451-1.1847,14.9243-0.0997,22.3531c1.395,13.5183,2.2476,27.114,3.7422,40.6212
			c2.458,6.665,4.7164,13.485,7.7058,19.9397c9.1892,5.3475,19.4303,8.8682,27.9886,15.2896
			c5.7128,3.9857,11.6028,7.7278,17.205,11.8907c-14.3929-0.1107-28.819-2.8674-43.1676-0.5757
			c-11.4034,0.7862-22.8625,0.1772-34.2771,0.3544c-2.1591-4.5282-5.0486-8.7465-6.7867-13.4407
			c-0.5315-10.2411-1.8823-20.4158-3.576-30.5239c-1.5834-3.1443-3.4432-6.1558-5.5358-8.968
			c-7.7611-2.8785-15.6882-5.9343-24.0251-6.6207c-11.5807-1.2844-23.1061-3.0336-34.6313-4.7386
			c0.4207,2.5132,0.9301,5.0265,1.4281,7.5397c12.234,5.2922,24.4126,10.7725,35.9712,17.4597
			c-6.51,0.7861-12.9979,1.7603-19.4968,2.6018c-13.4739,0.4871-26.9922,0.4761-40.3885,2.0814
			c-7.1632,0.3764-14.2932,1.7714-21.4786,1.2843c-4.8494-0.31-9.6875-0.764-14.5479-0.9301
			c-5.3475,0.1882-9.765-3.3546-14.3596-5.5578c-2.923-2.6904-4.7275-6.3993-7.1743-9.4883
			c-3.2108-3.6204-0.9078-8.68-1.0629-12.9646c4.5392-0.1772,9.0675-0.7529,13.6178-0.6642
			c6.8201,1.8488,12.6658,8.2371,20.1832,6.2552c4.1519-0.5647,8.3147-1.0296,12.5107-1.384
			c-2.4689-4.8713-4.1851-10.2078-7.451-14.6142c-3.7422-4.0079-6.8754-8.7021-11.4479-11.8354
			c-7.4401-5.2036-14.3486-11.326-22.8293-14.8246c-15.0903-8.0933-31.2435-13.8726-46.7325-21.08
			c13.939-0.8193,27.8557-3.576,41.8389-2.0925c5.7461,0.6754,11.7025,0.0554,17.2383,2.0372
			c6.1558,2.0372,12.6324,3.1886,18.6221,5.6907c12.9979,7.8386,25.6084,16.3857,39.2151,23.2057
			c4.5725,0.5536,9.2336,0.0775,13.8503,0.2325c-0.631-3.0446,0.1218-6.6429-2.1699-9.0786
			c-6.4989-8.2593-12.8872-16.6293-19.8954-24.4457c-9.6986-4.7164-19.9728-8.2482-29.76-12.7875
			c7.0968,0.4096,14.26,0.0222,21.2793,1.3618c5.4913,0.8968,10.994,1.7936,16.4965,2.6239
			c7.0857,0.8746,13.651,3.875,20.4268,5.9565c2.2808,0.9078,5.0375,1.1846,6.7205,3.1996
			c12.3445,13.186,24.4346,26.6489,37.4989,39.1265c3.8639,0.4872,7.7942,0.1218,11.6914,0.1882
			c0.9965-4.495,2.7236-8.835,3.3546-13.3964c-0.1882-7.0414-0.9965-14.0386-1.0961-21.069
			c0.1439-2.7015-1.406-4.9711-2.5796-7.2518c-1.7937-3.3436-3.4985-6.7315-5.2921-10.064
			c-5.9232-1.395-11.7026-3.2772-17.6259-4.6279c-4.3842,0.2214-8.6688,1.3729-13.0089,1.9929
			c-3.5206,0.3875-7.1189,1.8489-10.6285,0.6642c-12.9535-3.554-25.9625-6.9086-39.0601-9.8425
			c-3.6204-0.9965-7.6172-1.2621-10.684-3.6204c-7.9382-5.4915-15.8986-10.9497-23.8922-16.3415
			c7.8275-6.4214,15.1569-13.5071,23.7262-18.9654c3.6202-2.48,7.2517-4.9489,10.9275-7.3625
			c-15.799-7.285-31.4873-14.8358-46.821-23.0508c-4.2736-2.6903-8.071-6.0339-12.1454-8.9678
			c-4.3621-3.0004-7.3292-7.429-10.8055-11.2928c-6.4214-7.5839-12.9536-15.0904-19.1425-22.8404
			c-2.4469-6.6207-3.8861-13.629-5.8679-20.4047c9.0675,5.4803,18.4561,10.5289,26.7375,17.194
			c12.1344,9.7872,26.4054,16.5075,40.8314,22.2093c2.1699,0.7529,4.3179,2.2476,6.7314,1.8378
			c5.2367-0.8082,10.4735-1.6829,15.7102-2.5353c-4.0963-8.8793-12.6215-14.4371-19.2643-21.2792
			c-3.4653-2.5353-4.4618-6.809-5.9896-10.5621c-2.3582-5.6132-3.2992-11.6804-4.4397-17.6146
			c1.1183-4.3511,3.2772-8.37,4.7719-12.5993c0.9633-1.9708,1.1957-4.5504,3.1997-5.8015
			c4.4728-3.2881,9.2999-6.0782,13.6842-9.4993c2.1257-2.7015,3.3768-5.9675,5.1704-8.8904
			c-3.4875-3.0557-6.1226-8.4254-11.4257-8.0821c-9.2004-0.3654-18.2568-1.9597-27.2357-3.8307
			c3.5096-4.34,5.8567-10.075,11.16-12.5883C1602.1125,630.618,1605.4117,627.197,1609.8514,627.3963z"/>
		<path d="M1464.3838,877.5776c5.6907-0.2325,11.3815-0.4539,17.0833-0.3875c5.5356,0.5647,11.005,1.7161,16.5186,2.5022
			c7.296,0.8968,14.0275,4.03,21.069,5.9564c0.1217,6.1557,0.8414,12.3336,0.5536,18.4893
			c-2.9894,9.1118-5.2368,18.6-10.0197,26.9921c-2.2144,4.0965-4.0632,8.4031-6.4658,12.4001
			c-4.4507,3.3546-9.3331,6.1113-13.9279,9.2668c-3.0004,1.8267-5.7461,4.3177-9.2778,5.0707
			c-7.1964,1.6385-14.3929,3.3214-21.5894,4.9711c-2.5907,0.6201-5.3364,0.9521-7.6503,2.3693
			c-11.5365,6.6872-22.8958,13.6732-34.5096,20.1943c-5.0044-10.7836-9.444-21.8218-14.2711-32.6719
			c-2.1479-4.6168-3.3657-9.5657-4.783-14.415c-0.941-1.6939,0.8969-2.7568,1.9043-3.731
			c3.9304-3.4432,7.5618-7.2408,11.6139-10.5622c4.8826-3.3546,10.0751-6.2442,15.0461-9.466
			c1.4393,5.9675,2.7236,11.9903,4.1407,17.98c0.3654,2.2365,2.4689,3.4654,3.9414,5.0043
			c2.5575,2.1589,4.7164,4.8715,7.6061,6.6207c4.0521,1.1515,8.2039,2.0593,12.3889,2.6461
			c6.0671-2.8896,12.4664-4.96,18.7218-7.3958c8.071-5.6907,11.6139-15.7214,12.2893-25.2538
			c-0.2659-3.576,3.554-6.3218,2.2365-9.887c-1.4504-4.7939-3.8418-9.3443-6.355-13.6398
			C1475.411,886.0583,1469.7202,882.0283,1464.3838,877.5776z"/>
		<path d="M1446.5144,895.7901c10.6396-4.0632,24.1469,2.5132,26.4829,13.8835c1.4725,8.691-4.7275,16.5739-12.0347,20.4932
			c-4.5503,2.934-10.8832,2.9783-15.4003-0.0222c-9.599-5.3142-12.9315-18.8767-7.1632-28.1436
			C1440.4916,899.2444,1443.0381,896.6426,1446.5144,895.7901z"/>
		<path d="M1365.6266,930.1669c6.067,8.7354,12.09,17.5815,17.6921,26.6269c4.3953,15.2122,8.7574,30.4465,13.5071,45.5588
			c-10.1414,6.5654-19.9951,13.5626-30.5129,19.519c-0.9301,5.0154-1.9154,10.0308-2.5021,15.1014
			c-0.0886,4.4286,0.5536,8.8572,0.941,13.2747c1.6608,13.3855,0.2878,26.8815,0.4208,40.3223
			c-7.3293-9.7429-14.5369-19.5745-22.3201-28.963c-5.7351-6.7867-10.4404-14.5479-17.5482-20.0392
			c-6.6317-6.1779-13.9279-11.5586-21.1243-17.05c11.2485-4.6722,23.6265-4.7496,35.6057-5.1372
			c6.5432,0.465,12.3557-3.0225,18.4229-4.9156c3.6647-2.0482,7.2186-4.65,10.0972-7.6946
			c3.6758-10.6287,7.3958-21.5341,7.3293-32.8823C1371.2841,959.5505,1368.0291,944.9473,1365.6266,930.1669z"/>
		<path d="M1530.5688,963.813c12.1011-0.31,24.0804,1.4283,35.9269,3.72c6.233,2.4247,12.3003,5.3143,18.4006,8.0711
			c7.5507,4.5282,15.2455,8.9346,22.0211,14.6031c9.4661,6.8201,17.1831,15.6883,25.3978,23.9033
			c-4.6499-1.7604-8.9346-4.3622-13.6178-6.0118c-19.4192-4.5171-39.5582-4.7386-59.3651-3.4432
			c-11.6361,0.786-23.5046-0.5425-34.9193,2.325c-7.1522,1.24-14.0054,3.6757-21.0135,5.4472
			c-4.9047,1.1735-10.0308,1.1735-14.88,2.5796c-5.2589,3.1111-10.2633,6.6539-15.2786,10.1415
			c7.8164,4.1851,15.0017,9.3774,22.165,14.592c6.5653,4.5725,13.4407,8.6913,20.1611,13.0422
			c3.0555,2.0371,6.5653,3.6536,8.7354,6.7535c4.2625,5.6244,8.835,11.0272,12.9536,16.7733
			c-10.8611-5.9565-21.4122-12.7986-33.3472-16.4412c-10.0085-2.192-19.8844-5.1482-30.0922-6.3217
			c-5.2257-0.7529-10.5844-1.1515-15.4779-3.2883c-5.2368-2.1921-10.8389-3.1886-16.4521-3.7753
			c-0.941,2.7346-3.0336,5.2257-3.2992,8.0931c2.3804,6.8201,5.2589,13.4629,8.7686,19.7736
			c3.3435,6.1669,5.8789,12.7211,8.8239,19.076c2.1368,4.0966,1.5833,8.8572,2.0039,13.319
			c1.2289,8.7133-2.6128,16.9504-4.34,25.3314c-2.0592-3.8085-4.7053-7.4177-5.8236-11.6471
			c-3.576-17.6367-15.5553-31.6532-24.8885-46.5222c-5.7793,0.2878-10.7836,3.1222-14.6805,7.2629
			c-2.9451,10.85-3.5873,22.1539-4.4508,33.325c0.2435,8.7133-1.2732,17.5262,0.6422,26.1285
			c1.3064,6.7427,1.694,13.7065,4.0188,20.2275c2.9117,8.3923,5.0375,17.0945,9.156,25.0215
			c4.2072,8.3257,7.1743,17.3601,12.533,25.0658c-1.085-10.5953-2.8896-21.1022-4.4618-31.6311
			c4.8715,5.8347,9.5989,11.8574,13.1306,18.6221c11.1047,18.6001,24.9772,35.3734,39.3147,51.5598
			c4.495,5.5135,8.3369,11.5143,12.5994,17.2159c2.9672,3.543,2.7346,8.4808,3.3103,12.8319
			c-1.6165,7.4178-2.8453,15.0461-6.2443,21.9325c-4.1185,8.8683-7.1189,18.1793-10.4625,27.3574
			c-5.7461,11.9573-13.2083,23.2059-17.0833,36.0044c-1.1736,3.9193-3.4542,7.7722-2.6682,12.0236
			c0.3986,3.9969,0.2546,8.049,0.8193,12.0458c1.2178,3.5428,3.1443,6.809,4.6057,10.2743c2.9006-0.786,5.9453-1.4614,8.3589-3.3878
			c4.2625-3.1222,8.8572-5.7904,12.9314-9.1671c3.7422-3.6758,7.2739-7.5398,10.9941-11.2266
			c3.3767-3.1331,5.0043-7.5397,7.2296-11.47c2.0039-3.9746,4.6832-7.7057,5.569-12.1453
			c2.0482-7.5619,3.5649-15.2676,5.8568-22.752c0.6753,5.5801,0.7639,11.2266,1.4946,16.8175
			c0.9854,7.7722-0.2546,15.5665-0.8193,23.3276c-0.2657,4.2736-2.1146,8.2371-3.2993,12.3114
			c-1.9928,5.7351-3.2439,11.7689-6.2,17.1385c-2.3582,4.1851-3.7312,9.1007-7.4954,12.3336
			c-8.0378,8.2261-16.74,15.8542-23.7483,25.0214c-4.34,6.0894-11.2375,9.4108-16.9503,13.9833
			c-7.3625,5.1593-13.7175,11.8354-21.9436,15.6882c-4.0189,2.0704-7.9935,4.2183-12.0015,6.3218
			c1.5833-12.7211,6.0339-24.7778,8.5361-37.2996c2.015-9.6101,4.7939-19.0872,5.9232-28.8633
			c1.0959-8.9236,3.2771-17.6921,4.174-26.6268c-0.1107-12.1896,0.4095-24.3793,0.0996-36.569
			c-0.5425-12.4664,1.4393-25.0547-0.5314-37.4326c-3.4211-9.1117-6.9419-18.1903-10.3518-27.302
			c-2.6682-7.9493-3.8307-16.3414-6.8643-24.1691c-3.8086-9.8314-6.4104-20.0614-9.7982-30.0369
			c-1.9043-4.6167-4.2294-9.0563-6.3108-13.5846c-3.9414-7.595-5.3585-16.1311-7.9603-24.2133
			c-7.0082-23.2389-12.5219-47.0978-13.3633-71.4329c-1.3285-13.2637,1.7272-26.4829,0.9189-39.7465
			c-0.2103-9.9976-0.4539-19.984-1.2289-29.9482c-0.5868-4.3511,1.4503-8.3589,2.4025-12.4775
			c9.6875,2.7125,19.696,3.8639,29.6161,5.425c1.7161,0.465,3.255-0.5979,4.816-1.1515c2.137-8.7686-3.2992-16.9614-7.0082-24.5231
			c13.6843-1.8268,27.5236-2.2476,41.1194-4.6501c23.0729-3.6425,46.5775-6.2443,68.5986-14.4482
			c3.9746-2.2697,8.1265-4.34,11.7911-7.0858c1.0074-2.3029,2.8564-4.9932,1.2621-7.451
			C1537.0898,973.0466,1533.9788,968.3079,1530.5688,963.813z"/>
		<path d="M1300.1832,1043.6049c6.2444,4.34,13.4076,7.584,18.5447,13.3522c4.2404,4.6057,9.4108,8.4697,12.6326,13.9388
			c2.934,4.639,6.0117,9.1895,8.8793,13.8726c-7.6614-1.6052-15.655-2.2365-22.785-5.6907
			c-2.015,1.3065-4.0853,2.5465-6.0007,3.9967c1.1625,9.0122,3.8086,17.8472,5.2147,26.8594
			c0.465,4.1296,2.5353,8.3701,1.0406,12.4998c-2.9781,10.5399-5.8457,21.1353-9.1339,31.5757
			c-3.6536,6.1779-7.905,12.0347-12.4664,17.5925c-3.3989,4.1627-4.8604,9.4993-8.0378,13.8171
			c-0.908-7.0414,0.5314-14.0497,0.7971-21.069c0.332-4.0078,0.4095-8.049,1.1957-11.9904
			c4.3179-11.0714,11.8909-21.1686,12.9757-33.2697c-2.8785-9.4108-6.189-18.6775-9.8204-27.8115
			c-2.5575-6.0892-3.7089-12.6215-5.4139-18.9542c-1.1404-2.9894,0.3876-5.9232,1.1625-8.7576
			c1.3507-4.174,2.3583-8.4586,3.8308-12.5883C1294.7693,1048.0999,1297.7697,1046.1069,1300.1832,1043.6049z"/>
		<path d="M1595.3368,1090.5145c12.3557,18.1904,25.4531,36.2258,42.0161,50.8512c8.3921,4.8715,17.7917,7.606,26.9036,10.8057
			c16.0315,4.7386,32.7383,6.0339,49.29,7.8275c-5.7571,2.4025-11.7246,4.2294-17.5482,6.4325
			c-6.9862,3.1332-14.8025,2.2144-22.2094,3.255c-8.6801,0.8746-17.2715,2.4911-25.8849,3.8197
			c-3.6758,2.3582-6.809,5.4692-10.1083,8.3147c11.3372,0.8966,22.6854,1.7491,33.9008,3.6866
			c5.8014,1.074,11.9349,1.0629,17.3378,3.72c6.2333,2.8344,12.71,5.1372,18.8214,8.2484
			c-14.592-0.3877-29.2175-1.7162-43.8207-0.7197c-14.9464,1.9707-30.0369,0.6864-45.0498,1.1957
			c-14.6694,3.875-28.5531,10.3076-41.54,18.1239c1.3286,2.5907,2.5133,5.2811,3.9968,7.8276
			c11.6914,5.1039,24.8,4.4838,37.2996,4.9045c19.7958-1.7159,39.7355-5.2035,59.6088-2.325
			c-10.1193,5.4028-20.3052,10.7061-30.823,15.2786c-7.0857,3.9193-15.4557,3.0226-23.1614,4.5946
			c-11.3704,2.0483-22.7296,4.2072-34.2772,4.8936c-8.6246,0.4982-16.8175,3.4432-25.1765,5.3364
			c-0.6422,10.4847-0.775,21.224-4.174,31.2769c-2.0261,7.4843-5.58,14.4039-8.2925,21.6447
			c-1.5834,3.9083-2.7457,8.0269-4.8936,11.6915c-5.2036,9.0564-10.4957,18.0796-15.943,26.9811
			c1.2843-11.0714,1.1405-22.2867,3.1001-33.2808c1.406-9.1672,3.1885-18.3453,2.6017-27.6676
			c0.8304-13.5403-2.8453-26.7264-6.3107-39.6688c-3.5983-9.8536-7.2629-19.674-10.85-29.5276
			c5.3142,1.5057,10.6617,2.9451,15.8765,4.7938c6.0117,2.635,11.791,5.8015,17.681,8.7021
			c2.3582-4.4175,4.8715-8.7574,7.2628-13.1638c5.1704-12.5662,4.5283-27.1139-1.0297-39.4475
			c-2.2806-4.2736-4.8604-8.3701-6.9639-12.7211c8.4807,3.1221,16.4078,7.7278,25.431,9.2667
			c0.4208-1.9707,0.9744-3.886,1.3064-5.8346c-3.6204-8.8794-9.2999-16.7179-15.0349-24.3572
			c9.0121,2.6571,17.9246,5.6243,26.7928,8.7242c7.1632,2.6129,14.7139,3.9303,22.0875,5.8678
			c-2.7236-5.0928-5.7904-9.9753-8.4143-15.1014C1597.9386,1127.6703,1595.525,1108.9485,1595.3368,1090.5145z"/>
		<path d="M1385.8651,1507.0995c8.9679-5.9895,15.8101-14.4259,22.8516-22.4528c0.7749,3.7864,3.421,7.6836,1.8489,11.5918
			c-2.0704,6.1667-3.8308,12.4332-5.9786,18.5889c-2.2032,5.104-4.6389,10.1304-7.0303,15.168
			c-0.5758,2.0038-2.8676,2.2806-4.484,3.089c-5.9121,2.0923-11.6028,4.8049-17.5925,6.6317
			c-9.4882,1.3728-19.1979,0.7528-28.5864,2.8674c-15.3229,3.2108-31.155,4.0964-46.0793,8.9568
			c-2.0703,5.1261-3.6868,10.4293-5.6132,15.6218c-0.9189,1.7272-0.0111,3.5872,0.4539,5.3254
			c1.4061,4.4838,2.7678,9.0011,4.1296,13.5182c10.4625-1.9154,21.0247-3.2882,31.4872-5.2479
			c6.2111-2.3027,11.9904-5.6464,18.0464-8.3479c6.4436-3.5095,13.7507-4.7164,20.7257-6.7535
			c-3.1443,4.2183-6.2332,8.4586-9.2778,12.7433c-2.7236,3.9193-6.8975,6.4104-10.4072,9.5436
			c-3.9746,3.5649-9.3442,4.7164-14.0718,6.9418c-4.6279,1.694-9.0122,4.6168-14.1161,4.4507
			c-5.5911,0.0886-11.16,0.5093-16.74,0.6643c-5.7129-0.786-11.326-2.2917-16.9504-3.5208
			c-2.8342-10.1746-2.4911-20.8585-2.7346-31.3322c-0.3875-8.8239,0.454-17.6368,1.074-26.4164
			c2.48-6.8866,5.3475-13.9833,11.3815-18.5558c15.6328-4.8936,31.8082-8.4475,48.205-9.3444
			C1359.5594,1509.4467,1372.9226,1510.1553,1385.8651,1507.0995z"/>
	</g>
	<g>
		<path d="M1183.734,1359.5726c10.4845-3.7753,21.1686-6.9971,31.6863-10.6729c10.7505-3.9525,21.1355-8.9014,32.1072-12.2228
			c10.828-3.4655,21.6338-6.9973,32.4725-10.4294c0.0333,55.3098,0,110.6198,0.0222,165.9183l-0.0332,0.0211
			c0-0.0076,0-0.0153,0-0.0228c-20.3162-3.0889-40.3777-7.6283-60.2509-12.8318c-2.9783-0.4761-3.8418-3.6978-5.3143-5.8679
			c-9.3997-18.3009-18.2679-36.9121-25.6304-56.1321c-1.5278-6.6096-2.2474-13.3634-3.5096-20.0062
			c-2.5686-12.1564-1.5388-24.6671-2.1367-36.9895L1183.734,1359.5726z"/>
		<path d="M929.8542,101.7908c12.5771,14.9022,25.5529,29.7268,35.0522,46.8543c14.9354,24.8443,28.8077,50.3086,42.78,75.6954
			c3.6756,5.4803,7.3402,10.9828,11.3482,16.2197c-0.8636-5.4915-2.3029-10.8722-3.4211-16.3082
			c-2.7458-11.3704-3.9304-23.0286-5.6354-34.5761c11.4479,23.4603,21.7221,47.5186,31.5427,71.7097
			c2.6682,12.6657,5.4581,25.3757,6.4214,38.3182c3.1332,35.019,11.5918,69.5286,24.7557,102.134
			c4.5615,10.7282,7.6061,21.999,10.8943,33.159c1.4946,5.5468,4.2404,10.6176,6.5654,15.8432
			c3.3546,7.3071,6.676,14.6253,10.075,21.9104c-4.1407,1.4946-8.3257,2.9118-12.4996,4.351
			c-5.2589,1.6385-9.5657,5.2147-14.3043,7.894c-2.7788,1.528-5.1592,3.6536-7.3402,5.9675
			c-5.4138,5.6576-11.4258,10.7946-16.0314,17.194c-7.1965,8.3368-12.1786,18.2346-17.6257,27.7339
			c-0.9078,5.713-1.4504,11.4811-2.1146,17.2383c-7.1631-0.9189-14.3041-2.2585-21.5228-2.6682
			c-15.6993,1.9265-31.465,3.6978-46.965,6.975c-14.4704,2.9893-29.2508,4.019-43.8761,6.0118
			c2.8455-11.78,4.8715-23.7703,7.9161-35.4839c4.5504-9.8093,9.6765-19.3418,14.3707-29.0736
			c5.4472,4.1518,10.994,8.1596,16.3969,12.3668c6.8864,6.1999,12.9425,13.3412,19.9175,19.4083
			c9.8314-2.1479,19.5632-4.6613,29.3835-6.8423c2.4578-0.6641,5.3364-0.7638,7.0414-2.9117
			c10.6285-11.2264,21.4343-22.2868,32.0961-33.4689c1.3396-8.691,1.4282-17.5482,2.3361-26.2946
			c-1.384-19.5521-3.6647-39.0379-6.3551-58.4572c-1.0629-11.3482-4.3068-22.309-6.676-33.4247
			c-3.4211-15.0461-6.809-30.1032-10.3075-45.1272c-3.72-10.7725-8.7354-21.0689-12.2893-31.9079
			c-2.2585-6.4657-3.1886-13.5847-7.3846-19.209c-8.2703-13.1418-16.6072-26.2393-24.7668-39.4475
			c-5.89-9.2557-11.2597-18.8657-17.5261-27.889c-13.3411-16.8729-25.4754-34.7754-40.5325-50.2311
			c-8.3146-9.7318-17.8582-18.2568-26.97-27.2025c-8.1818,6.4768-16.585,12.6989-24.6561,19.3086
			c-7.9493,8.6689-15.2896,17.8804-23.1946,26.5936c-6.2886,6.6429-12.5329,13.3189-18.8214,19.9618
			c-7.3625,8.2593-11.5032,19.1647-20.2386,26.2171c-4.7053,4.2736-9.2335,8.7354-14.0275,12.9093
			c1.2068-7.0968,3.0114-14.0829,4.4729-21.1354c1.7382-9.8536,6.3439-18.8436,9.6099-28.2322
			c10.2191-26.4829,19.7737-53.1982,29.882-79.7144c4.052-10.2743,7.3403-20.8918,12.4332-30.7232
			c4.7275-10.4182,10.4292-20.4268,14.1603-31.2768c5.3033-14.2379,10.4183-28.5532,17.2272-42.16
			c7.451,21.2239,14.3153,42.7468,24.0361,63.074C912.9264,76.404,920.7651,89.5126,929.8542,101.7908z"/>
		<path d="M759.1884,269.7887c0.8636,6.2,2.0704,12.3557,3.1333,18.5226c4.2071,15.8875,9.4438,31.5315,16.7068,46.3008
			c11.2264,20.15,22.0543,40.5215,33.3804,60.6272c6.5653,9.6101,12.6546,19.5965,20.15,28.5422
			c6.2886,8.4144,14.3487,15.2453,20.9916,23.3718c-9.4883,3.3214-19.0983,6.3217-28.5311,9.8093
			c-5.0486,2.6018-10.0861,5.2922-14.9022,8.3147c-3.7532,3.6093-6.986,7.7278-10.5399,11.5475
			c-2.9451,2.7125-2.8233,6.9861-3.9193,10.5843c-0.7197,3.7975-2.4689,7.595-1.6385,11.5253
			c1.3506,7.8164,2.7568,15.6218,4.3953,23.3718c2.8674,16.7621,9.2224,32.7936,17.6921,47.4743
			c3.8417,4.2736,7.7722,8.514,11.9018,12.4996c3.7864,1.2512,8.049,1.3397,12.0236,1.6054
			c4.3622-2.6793,8.8239-5.2479,12.9093-8.2925c1.8932-3.9525,3.2219-8.1487,4.8383-12.2007
			c-4.6721-1.5168-9.4662-2.7346-14.0276-4.6057c-5.2921-2.5353-10.5289-5.2257-15.7879-7.8607
			c18.6001-7.3735,37.7427-13.4075,55.7227-22.2646c-1.085,9.8536-3.1886,19.8068-1.9153,29.7379
			c2.5574,5.6907,1.7603,11.935,1.8821,17.9911c3.3658,2.8896,7.595,5.0707,9.7319,9.1228
			c3.1996,5.4693,6.9971,10.6618,8.9235,16.7622c-9.1339-3.1332-18.312-7.3182-28.1878-6.7535
			c-8.2703,1.9597-16.6293,3.4653-24.944,5.1925c-7.4843,3.4543-12.6104,10.219-17.9357,16.2861
			c-8.2705,8.1376-17.2162,15.8433-27.6234,21.1243c-8.226,2.801-16.275,6.1889-23.8036,10.5732
			c-5.2589,4.1297-11.2928,8.2815-12.9979,15.179c0.6422,3.4653,1.4837,6.9196,2.5687,10.2744
			c2.7568,4.3511,7.6613,6.4768,12.4885,7.6393c14.0276,3.864,26.9037,10.7947,39.4919,17.9025
			c-4.8382,1.8489-9.5547,4.1407-14.5479,5.6132c-8.9678,1.4725-18.1461,1.86-26.9811,4.174
			c-7.8385,1.9929-16.0093,3.1775-23.3939,6.6207c-9.9089,5.2922-16.2418,14.8469-22.785,23.6154
			c-6.0671,8.5804-13.3522,16.2418-19.53,24.7446c-6.0782,10.7726-13.1196,21.0358-20.9694,30.6125
			c1.0962-7.2407,2.3473-14.4482,3.399-21.6779c0.7639-6.4435,3.8085-12.2893,5.8235-18.3786
			c7.75-21.7775,17.5925-42.6915,27.114-63.7161c4.9711-9.1228,4.7608-19.8067,6.986-29.7267
			c2.7015-12.6547,3.1996-25.5972,4.5505-38.429c3.0114-15.1014,7.0745-30.0147,8.8572-45.3486
			c4.2513-26.8704,7.7167-53.8404,11.016-80.8437c2.3472-9.9643,5.3585-19.7736,7.8829-29.6936
			c1.5057-7.2186,6.9196-12.71,9.5214-19.4525c0.9299-5.8015,2.1036-11.6029,2.5243-17.4708
			c-1.705-7.3848-3.8528-14.692-5.9232-21.9991c-7.0858-14.7913-16.7289-28.1213-25.4865-41.9385
			c-9.1007-24.4901-16.4632-50.3197-15.4004-76.703c-1.0296-8.3368,3.0114-15.8875,5.0597-23.7372
			c1.9595-7.9272,6.676-14.725,10.4625-21.844c5.1372-7.8386,9.3333-16.3747,15.6994-23.3164
			C762.5874,237.0395,759.8306,253.3256,759.1884,269.7887z"/>
		<path d="M885.3365,314.6725c1.1846,4.1518,1.8931,8.5471,4.351,12.2007c3.3325,5.1703,5.8901,10.8832,9.6323,15.7657
			c3.2218,2.7014,6.0228,6.355,9.8425,8.0932c18.1129-0.1439,36.1814-1.6607,54.261-2.79
			c5.2368-0.7419,10.3517-2.3029,15.3672-3.8972c4.6611-2.6018,8.7907-6.045,13.3743-8.7797
			c-0.8746,4.4507-0.7639,9.1007-1.9707,13.4629c-4.0521,7.2961-8.525,14.3487-12.7322,21.5561
			c-8.3367,1.2178-16.6847,2.5907-25.1653,2.181c-12.8318-0.7418-25.0436,3.9747-37.6207,5.5468
			c-13.1529,0-26.3279,0.2214-39.4808-0.0997c-3.4543-2.4136-6.5875-5.2589-9.9532-7.7943
			c-1.3506-1.2289-3.3104-2.2254-3.4764-4.2736c-0.9965-5.0596-2.5354-10.0528-3.0999-15.19
			c0.7417-5.7129,1.0739-11.5365,2.4578-17.1386c3.266-8.6357,6.2554-17.3711,9.2114-26.1175
			c2.8011-5.89,5.8125-11.7136,9.1118-17.3268C881.4615,298.2535,883.1111,306.5349,885.3365,314.6725z"/>
		<path d="M1139.3265,323.0315c7.2185,4.3622,14.9021,7.905,22.3201,11.9461c4.4175,2.4136,7.3846,6.7757,11.8353,9.145
			c6.9529,3.72,14.0275,7.2407,20.6039,11.5918c4.2515,2.9782,9.3333,4.2736,14.1604,5.9786
			c2.5797,1.0186,5.1925-0.4872,7.7389-0.8304c-3.0115-17.6035-7.2296-35.1075-7.6836-53.0432
			c2.1479,2.2365,3.7643,4.9047,4.816,7.7943c6.4104,15.9318,13.8837,31.4207,22.298,46.3893
			c6.9971,13.9832,17.0057,26.1507,24.5343,39.8239c1.1403,3.0446,1.118,6.355,1.6274,9.5325
			c0.9412,7.9936,2.3694,15.9096,3.864,23.8147c2.9227,17.4708,4.8824,35.0854,6.2332,52.7333
			c-0.3544,10.0528-0.8859,20.0946-1.4836,30.1364c-2.7347-9.6764-6.4104-19.22-7.3071-29.3061
			c-2.5354-21.9547-8.8904-43.3336-17.5925-63.6054c-7.9603-14.57-17.9689-28.2211-30.6569-39.0268
			c-4.2515-4.4618-10.4957-5.8346-15.7878-8.6357c-7.4178-3.864-16.109-4.3622-23.3497-8.6469
			c-3.5981-1.9818-7.3956-3.6093-10.9053-5.7682c-3.9636-4.2736-6.1005-9.9975-10.1747-14.1714
			c-4.2736-3.2218-8.5803-6.4325-12.9757-9.4993c-3.8307-0.1882-7.7168,0.2325-11.5143,0.7971
			c-3.3879,2.0371-7.0304,4.2071-9.6322,7.1854c-0.6753,12.0125,0.6975,23.9474,1.9375,35.8825
			c3.1443,1.4282,6.0894,3.4543,9.455,4.2957c6.045-1.3839,11.8575-3.565,17.7144-5.5246
			c-1.2733,5.2589-1.2954,10.8831-3.8197,15.7879c-2.6239,5.4914-4.7607,11.2264-7.6503,16.585
			c-3.7644,5.58-7.6283,11.0936-11.5808,16.5518c-8.3368-17.9247-17.7142-35.4618-24.0471-54.239
			c-1.7825-7.9714-4.4839-15.7879-5.115-23.9697c-2.8676-19.2533-0.1882-38.7501,2.2032-57.9037
			c5.8456,4.2846,11.6138,8.68,17.4153,13.02C1123.948,313.4324,1131.7977,317.9939,1139.3265,323.0315z"/>
		<path d="M945.8971,423.4049c9.7097,8.4033,19.7293,16.4411,29.7711,24.4458c7.5175,5.7128,13.8504,12.7653,20.6261,19.2864
			c-6.1557-0.0775-12.3557,0.3322-18.5114-0.2104c-5.7461-1.2511-11.5143-2.4579-17.194-4.0189
			c-8.3036-4.2625-15.4666-11.0161-24.955-12.6657c-3.6424,1.2954-7.2296,2.9007-10.5731,4.8604
			c-4.03,5.27-7.5839,10.9054-11.3926,16.3525c-1.6496,2.1147-1.8821,4.8604-2.3471,7.4179c-0.775,4.7164-1.694,9.4107-2.48,14.1272
			c-0.8969,5.2368,0.011,10.5732-0.5536,15.8432c-2.3693,5.5579-5.1483,10.9607-7.9603,16.3193
			c-0.4539-12.0679-1.6607-24.1469-0.9079-36.2258c0.5203-9.2115,0.9299-18.4339,1.1182-27.6564
			c-0.9189-3.6314-1.9597-7.4068-3.9746-10.5843c-13.2305-13.0975-25.1323-27.4682-36.7351-42.005
			c-3.7863-5.3475-6.9196-11.1379-10.1082-16.8507c13.4296,6.9086,26.5604,14.3818,39.8904,21.4896
			c3.3547,1.1292,7.0081,0.8082,10.4846,1.2289c1.24-3.0114,5.126-5.8125,3.244-9.311c-1.9708-5.6242-4.1518-11.1711-5.9343-16.8507
			c8.8128,6.0118,17.1497,12.7101,25.9292,18.7772C930.8954,412.5107,938.9997,417.1607,945.8971,423.4049z"/>
		<path d="M1193.8428,466.6283c1.9264,3.6646,4.6169,7.0525,5.3143,11.2375c1.4614,7.0193,3.421,13.9611,4.6167,21.0357
			c-0.1992,8.7465-1.3396,17.4375-1.8378,26.184c5.1371-4.517,10.4182-8.8682,15.4114-13.5072
			c2.8785-3.4543,5.6465-7.0525,7.9382-10.9164c1.2843-4.9489,2.48-9.9532,3.3657-14.9907
			c-1.0297-15.4889-2.314-30.9778-3.41-46.4779c6.4435,19.7736,14.5145,38.9604,21.733,58.4572
			c2.3251,4.9932,0.0111,10.5179,0.8525,15.7546c1.1072,7.3957,2.5133,14.7472,3.5872,22.1539
			c1.3507,10.9386,1.694,21.9879,3.1997,32.9154c2.3802,13.2857,4.4286,26.6379,6.4767,39.99
			c0.3986,6.6429,0.2657,13.3301,0.1107,19.9839c-3.2771,10.5844-9.3221,20.3161-10.8943,31.4208
			c-1.0519,5.7905-2.3473,11.5476-3.3547,17.3601c1.2069,2.1479,3.1,3.8197,4.6389,5.7239
			c5.4583-5.6575,10.5291-11.7579,14.6255-18.4672c2.4468-6.8975,4.484-13.9168,6.7756-20.8586
			c1.5721,5.2368,4.34,10.5289,3.2882,16.131c-0.8413,6.7758-0.786,13.6622-2.0482,20.3715
			c-4.3844,9.2446-8.8571,18.4671-13.4851,27.59c-6.665,7.6725-14.2047,14.5811-20.9583,22.1982
			c-7.6171,8.6689-15.8875,16.8175-22.1871,26.5604c-4.4396,5.27-6.6649,11.8243-9.5214,17.9911
			c2.4136,5.2035,4.6499,10.4735,6.8975,15.7546c11.4368-4.6721,20.7589-12.865,30.4243-20.316
			c3.0557-4.3179,3.7311-9.9643,6.5432-14.4261c2.0371-2.2365,4.4286-4.0964,6.665-6.1115c2.48,3.576,6.5653,6.4214,6.9639,11.0493
			c0.9742,5.3809,2.7125,10.7836,1.6608,16.3193c-0.9965,6.4657,0.6531,13.6843-3.2661,19.4083
			c-4.3179,9.145-10.1636,17.4485-14.9132,26.3168c-1.7604,10.6065-3.2993,21.2794-4.8051,31.919
			c2.1036,6.9196,5.1925,13.5292,7.6836,20.3382c1.2289,3.7755,3.9746,7.4843,2.7014,11.6361
			c-1.9928,10.2191-3.1,20.593-3.4653,31.0002c5.9121,6.0893,12.5551,11.5696,18.5779,17.6146
			c-2.2476,2.4911-4.4397,5.0486-6.6539,7.595c-5.2036,6.2776-12.3447,10.5622-17.5039,16.895
			c-7.7833,9.145-16.563,17.349-25.2872,25.5641c3.2329-11.5808,5.89-23.3055,9.1671-34.8751
			c3.1776-10.4957,5.879-21.1133,8.0712-31.8525c2.9227-11.8354,3.5538-24.0804,2.7456-36.2036
			c-2.8342-8.3368-5.4471-16.8618-9.9753-24.4789c-11.5475-21.4011-22.6633-43.2119-29.8375-66.5172
			c-1.4061-6.1558-2.2808-12.4-3.5319-18.5779c-0.4982-3.3657-1.705-6.7424-1.0186-10.1525
			c1.1847-6.5875,2.3029-13.175,3.4985-19.7515c6.1226-17.637,19.2201-31.4209,29.8265-46.4227
			c3.8418-8.3478,8.4807-16.6182,9.3442-25.9293c1.4725-11.8243,5.9232-23.1614,6.0007-35.1518
			c0.0554-4.7496,1.4614-9.61-0.1107-14.249c-3.089-11.946-6.5875-23.8146-8.1154-36.0928
			c-3.255-11.4147-5.4692-23.2278-10.3186-34.1222c-1.6718-0.7528-3.6093-0.3432-5.4139-0.4982
			c-4.8049,14.5147-6.9086,29.7933-12.5883,44.0311c-3.9083,3.5208-8.3146,6.51-12.566,9.6211
			c-3.7421,0.6754-7.6836,0.4872-11.47,0.1107c-3.0668-1.7051-6.1447-3.4543-8.9568-5.5579
			c-4.0079-6.6539-5.5024-14.3818-6.3661-21.9989c1.9596-8.3369,6.3328-15.8765,10.4182-23.3386
			c2.6239-7.3293,7.0414-14.2711,7.2517-22.2426c2.3582-18.2457-2.2032-36.4361-7.296-53.8293
			c-3.554-8.9789-7.573-17.8361-13.7729-25.3425c-1.6385,4.9932-2.48,10.2964-5.2146,14.8689
			c-5.9786,12.2118-12.6105,24.1025-19.6519,35.7276c-7.5063,7.3404-15.9429,13.7064-24.8997,19.1979
			c7.3182,6.7537,15.1901,12.8207,23.3497,18.4893c-3.3104,0.0111-6.7203,0.3432-9.9644-0.5425
			c-10.6617-2.6239-21.3346-6.4104-32.4392-5.9786c-3.4987,2.7457-7.0194,5.5911-10.053,8.8571
			c-1.8711,3.8861-3.4321,7.9604-4.7053,12.09c1.4725,7.3403,6.1337,13.5293,11.6582,18.3453
			c5.27,2.5353,10.2854,6.0893,16.2529,6.7093c6.5543,0.9743,13.0754,2.1921,19.4082,4.1518
			c5.2258,0.8414,8.9347,4.9711,12.6105,8.4033c3.0225,5.5801,4.9379,11.7136,8.3146,17.1054
			c2.2919,3.565,3.875,7.75,7.3293,10.4072c4.1407,3.2772,7.8496,7.13,12.2007,10.1193
			c12.6547,1.0187,25.3315,1.7826,37.9751,2.9673c-5.5911,3.6867-10.4182,9.0453-17.2051,10.4846
			c-5.0264,1.24-9.9199,3.0889-15.0239,4.0632c-7.595-0.8304-15.179-1.9929-22.7739-2.9118
			c-11.2487-1.2068-22.2537-3.9414-33.3804-5.9011c4.0853,6.4103,8.6135,12.5439,12.71,18.9543
			c2.6461,4.816,4.7717,9.8979,7.2628,14.8025c3.0225,5.735,3.9857,12.2228,5.9564,18.3343
			c1.3508,3.9745,0.9633,8.2151,1.1183,12.3447c0.0553,5.0153,0.8636,10.1193-0.4097,15.0682
			c-1.6385,6.964-2.5021,14.1051-4.4728,20.9915c-2.1368,5.4803-4.196,11.0161-6.6429,16.3746
			c-2.7235-12.4664-3.6978-25.2097-4.207-37.9307c-1.7826-6.1557-3.543-12.3669-5.9675-18.29
			c-3.2994-5.5026-5.879-11.6029-10.6176-16.0757c-2.5686-2.5797-4.8271-5.4804-7.6172-7.8386
			c-4.7828-2.4246-9.9199-4.0853-14.8579-6.2111c-10.6285-3.7421-19.4746-10.9717-29.3281-16.2418
			c11.1598,12.9203,22.9731,25.4089,32.738,39.4365c3.7422,10.5068,8.3036,20.8143,10.1969,31.8857
			c0.7196,5.0485,3.3103,10.075,2.0039,15.2454c-1.2843,6.7868-2.5575,13.5847-3.7422,20.4047
			c-1.1293,13.1197-1.9485,26.2836-1.6274,39.4586c0.3099,3.6315-0.9854,7.8054,1.4392,10.9386
			c3.1,4.661,5.7461,9.6432,9.1782,14.0828c4.7053,4.8824,9.6654,9.5214,14.4814,14.2932
			c7.8496,7.0746,13.0754,16.3968,19.8511,24.4125c7.2075,8.5471,14.1051,17.36,20.6815,26.4054
			c3.6093-2.779,7.5063-5.2258,10.85-8.3147c2.3361-3.6757,3.6979-7.8829,5.7461-11.7136
			c3.6093,9.4218,3.421,19.5743,3.3214,29.4943c-1.3618,4.3951-2.934,8.7796-4.8383,12.9756
			c-2.3138,2.9338-5.0264,5.5247-7.4622,8.3589c-4.7495-4.5615-9.7871-8.835-14.5699-13.3632
			c-8.4917-9.6211-15.3672-20.6372-24.645-29.5718c-6.4657-6.4657-12.5883-13.2968-19.2643-19.5079
			c-8.6801-4.6722-17.4929-9.134-26.3169-13.5403c-10.3962-1.8157-20.9805-2.9229-31.4762-4.2404
			c-12.8983-0.0775-25.8076,0.4097-38.7169,0.3875c-8.1597-0.4982-16.2861-1.3065-24.4347-1.9375
			c5.4472-9.0675,11.2043-18.0686,14.4814-28.1879c-0.8857-3.2217-2.7125-6.0893-4.03-9.1339
			c-1.2289-2.3914-2.0261-5.1703-4.2072-6.8975c-4.3401-3.7643-8.8129-7.3957-13.0975-11.2264
			c8.9788-0.6422,17.9136-1.9486,26.8925-2.5021c9.2004,1.5389,18.2457,3.9968,27.3796,5.9232
			c11.2487,3.6757,21.3679,10.4515,32.9597,13.1529c-0.0332-7.8718-0.8303-15.7325-0.5093-23.6043
			c1.3175-12.8539,2.7014-25.719,3.1775-38.6283c-1.085-5.6796-2.5464-11.2818-4.0078-16.8729
			c-10.1968-23.3829-24.7115-44.4629-38.2518-65.9747c-6.9308-9.5879-13.175-19.7625-21.7222-28.0439
			c-3.5761-4.7607-9.4218-6.5985-14.7029-8.7575c-8.1376-1.8378-16.3415-3.3435-24.5122-5.0375
			c-7.2185-1.085-13.5957-4.8714-20.2607-7.595c-7.9493-4.5615-15.4336-9.9089-23.1614-14.8358
			c8.7243-2.9782,18.0576-2.325,27.0808-3.4321c13.618-1.4061,27.2912-1.0518,40.9534-0.9854
			c5.8014,0.5978,11.5253,1.871,17.2825,2.7457c5.7018,1.0739,11.614,1.3839,16.9836,3.72
			c4.783,1.9375,9.7872,3.3436,14.4261,5.5911c5.6797,3.8528,11.1268,8.0489,16.6847,12.0789
			c7.1964,6.045,13.5625,13.009,20.4933,19.3307c3.7643,1.1957,7.6835,1.8157,11.4921,2.8564
			c0.1771-4.0743,0.6422-8.1375,0.62-12.2118c-2.9229-9.7208-7.75-18.7108-13.02-27.3465
			c-4.3621-6.3109-9.1117-12.3669-13.0864-18.9544c-2.1146-3.5651-4.8936-6.8532-5.89-10.9608
			c-1.395-5.281-3.3214-10.4183-4.4397-15.7546c0.7861-4.7718,1.5391-9.5768,2.79-14.2379c1.4946-3.1887,3.41-6.2001,5.5026-9.0121
			c10.1857-6.3107,21.1686-11.2708,31.7639-16.8618c9.0564-5.6133,18.1461-11.2486,26.5714-17.7807
			c3.2218-4.3511,5.2478-9.4662,8.0822-14.0718c6.809-11.4036,13.4296-22.94,19.3418-34.8418
			c3.3989-9.2668,6.2886-18.7108,9.6764-27.9776c5.3254,9.7208,10.2743,19.6297,15.0129,29.6494
			C1184.1656,450.1314,1189.2474,458.2579,1193.8428,466.6283z"/>
		<path d="M961.6407,632.4338c5.3032,2.5132,7.6504,8.2482,11.16,12.5883c-8.9789,1.871-18.0354,3.4653-27.2357,3.8307
			c-5.3032-0.3433-7.9382,5.0264-11.4258,8.0821c1.7936,2.9229,3.0447,6.189,5.1704,8.8904
			c4.3843,3.4211,9.2115,6.2111,13.6843,9.4993c2.0039,1.2511,2.2365,3.8307,3.1996,5.8015
			c1.4946,4.2293,3.6536,8.2482,4.7718,12.5993c-1.1404,5.9343-2.0814,12.0014-4.4396,17.6146
			c-1.5278,3.7532-2.5243,8.0268-5.9896,10.5621c-6.6429,6.8421-15.168,12.4-19.2643,21.2792
			c5.2368,0.8525,10.4735,1.7272,15.7103,2.5353c2.4135,0.4097,4.5614-1.085,6.7314-1.8378
			c14.426-5.7018,28.697-12.4221,40.8313-22.2093c8.2815-6.665,17.67-11.7136,26.7375-17.194
			c-1.9818,6.7757-3.421,13.7839-5.8678,20.4047c-6.1889,7.75-12.7211,15.2565-19.1425,22.8404
			c-3.4763,3.8639-6.4435,8.2925-10.8056,11.2928c-4.0743,2.9339-7.8718,6.2775-12.1453,8.9678
			c-15.3338,8.215-31.0222,15.7657-46.8211,23.0508c3.6758,2.4136,7.3073,4.8825,10.9275,7.3625
			c8.5695,5.4583,15.8987,12.544,23.7263,18.9654c-7.9937,5.3918-15.954,10.85-23.8922,16.3415
			c-3.0668,2.3582-7.0636,2.6239-10.684,3.6204c-13.0976,2.934-26.1065,6.2886-39.0601,9.8425
			c-3.5097,1.1846-7.1079-0.2768-10.6285-0.6642c-4.3401-0.62-8.6247-1.7714-13.009-1.9929
			c-5.9232,1.3506-11.7026,3.2328-17.6258,4.6279c-1.7935,3.3325-3.4985,6.7203-5.2922,10.064
			c-1.1735,2.2807-2.7235,4.5503-2.5796,7.2518c-0.0996,7.0304-0.9078,14.0275-1.0961,21.069
			c0.631,4.5614,2.3583,8.9014,3.3547,13.3964c3.8972-0.0665,7.8275,0.299,11.6914-0.1882
			c13.0643-12.4775,25.1544-25.9404,37.499-39.1265c1.6829-2.015,4.4396-2.2918,6.7204-3.1996
			c6.7758-2.0815,13.341-5.0818,20.4268-5.9565c5.5025-0.8303,11.0051-1.7271,16.4965-2.6239
			c7.0193-1.3396,14.1826-0.9521,21.2793-1.3618c-9.7872,4.5392-20.0615,8.071-29.76,12.7875
			c-7.0082,7.8165-13.3964,16.1865-19.8954,24.4457c-2.2917,2.4357-1.5389,6.034-2.1699,9.0786
			c4.6167-0.155,9.2778,0.321,13.8503-0.2325c13.6068-6.82,26.2171-15.3671,39.2151-23.2057
			c5.9896-2.5021,12.4663-3.6536,18.6221-5.6907c5.5357-1.9818,11.4921-1.3618,17.2382-2.0372
			c13.9832-1.4835,27.9,1.2733,41.839,2.0925c-15.4891,7.2075-31.6422,12.9868-46.7326,21.08
			c-8.4807,3.4986-15.3893,9.621-22.8293,14.8246c-4.5725,3.1332-7.7057,7.8275-11.4479,11.8354
			c-3.266,4.4064-4.9821,9.7429-7.451,14.6142c4.196,0.3544,8.3589,0.8193,12.5107,1.384
			c7.5175,1.9818,13.3632-4.4064,20.1832-6.2552c4.5504-0.0887,9.0786,0.4871,13.6179,0.6642
			c-0.155,4.2846,2.1479,9.3442-1.0629,12.9646c-2.4467,3.089-4.2514,6.7979-7.1743,9.4883
			c-4.5946,2.2032-9.0121,5.746-14.3596,5.5578c-4.8604,0.1661-9.6986,0.6201-14.5479,0.9301
			c-7.1854,0.4871-14.3154-0.9079-21.4786-1.2843c-13.3964-1.6053-26.9147-1.5944-40.3886-2.0814
			c-6.499-0.8415-12.9868-1.8157-19.4968-2.6018c11.5585-6.6872,23.7371-12.1675,35.9711-17.4597
			c0.4982-2.5132,1.0075-5.0265,1.4281-7.5397c-11.5253,1.7051-23.0507,3.4543-34.6313,4.7386
			c-8.3368,0.6864-16.264,3.7421-24.0251,6.6207c-2.0925,2.8122-3.9525,5.8236-5.5357,8.968
			c-1.6938,10.1081-3.0447,20.2828-3.576,30.5239c-1.7382,4.6943-4.6278,8.9125-6.7868,13.4407
			c-11.4146-0.1772-22.8737,0.4318-34.2772-0.3544c-14.3485-2.2917-28.7747,0.4651-43.1675,0.5757
			c5.6021-4.1628,11.4922-7.905,17.205-11.8907c8.5583-6.4214,18.7994-9.9421,27.9886-15.2896
			c2.9893-6.4547,5.2478-13.2747,7.7058-19.9397c1.4946-13.5072,2.3471-27.1028,3.7421-40.6212
			c1.085-7.4288-0.133-14.902-0.0997-22.3531c-18.5225,1.6939-37.0007,3.8084-55.4901,5.8789
			c11.6028-6.6649,23.4161-12.9425,35.1076-19.4304c2.6903-1.6496,6.2111-2.5908,7.4842-5.7571
			c2.1923-4.2072,4.783-8.2151,6.6539-12.5551c-1.3618-9.7539-3.1996-19.4414-4.8604-29.1511
			c7.9937,2.4911,15.8987,5.27,23.9366,7.6061c11.016,1.86,22.032,3.6868,33.0704,5.3696
			c10.5399,0.6089,21.1021,0.4761,31.6532,0.7307c6.2443,0.3432,12.3447-1.3729,18.3564-2.7568
			c4.1296-1.9265,7.9161-4.5061,11.8133-6.8311c-4.2514-1.7603-8.3257-3.9857-12.6989-5.4471
			c-5.0154-1.0518-10.1082-1.7272-15.1569-2.6572c-11.8464-1.6829-23.1615-5.6907-34.7422-8.5915
			c-22.5858-6.4989-45.1714-13.1971-67.2147-21.39c-4.3511-2.9893-8.4697-6.3329-12.555-9.6986
			c21.1686,2.8675,42.2707,6.2554,63.3618,9.5878c8.9235,0.0997,17.8029-0.9632,26.7154-1.0185
			c6.4879,0.1992,12.2782-3.1222,18.3786-4.794c10.9275-3.0225,20.6593-8.9789,30.7785-13.9057
			c-24.7446-0.5757-49.4782-1.9927-74.1122-4.34c-20.3715-4.1629-40.5325-9.2889-60.6826-14.3707
			c18.1351-1.9264,36.3365-3.3214,54.549-4.3068c10.3408-0.465,20.6926-0.7861,30.989-1.6607
			c11.3151-2.945,22.7297-5.6243,33.9229-8.9568c9.4883-9.1783,18.1904-19.1204,26.2505-29.5718
			c-1.3287-6.6097-2.8233-13.175-4.03-19.7958c-10.1082-3.9968-20.2497-8.0488-31.0887-9.5657
			c-9.0342-3.0334-18.0242,2.1147-27.1581,1.7937c-7.728-0.3875-15.6661,0.9521-23.2169-1.2289
			c-6.0782-1.5389-12.2117-2.8676-18.2679-4.5283c15.3782-7.7833,30.5904-15.8765,45.5479-24.4347
			c7.8054-4.03,16.2197-6.7093,24.313-10.0861c6.3992-1.7825,13.0864-2.2365,19.5964-3.4764
			c11.2264-2.5353,22.6522,0.3211,33.9672,0.4982C954.5883,627.197,957.8876,630.618,961.6407,632.4338z"/>
		<path d="M1079.3524,890.6309c-2.5133,4.2955-4.9047,8.8459-6.355,13.6398c-1.3175,3.5651,2.5023,6.3109,2.2365,9.887
			c0.6753,9.5325,4.2181,19.5631,12.2892,25.2538c6.2554,2.4358,12.6547,4.5062,18.7218,7.3958
			c4.1851-0.5869,8.3369-1.4946,12.3889-2.6461c2.8896-1.7492,5.0486-4.4618,7.6061-6.6207
			c1.4725-1.5389,3.576-2.7679,3.9415-5.0043c1.4171-5.9897,2.7014-12.0125,4.1406-17.98
			c4.9712,3.2218,10.1637,6.1115,15.0461,9.466c4.0521,3.3214,7.6836,7.119,11.6139,10.5622
			c1.0076,0.9742,2.8453,2.0371,1.9043,3.731c-1.4172,4.8493-2.635,9.7982-4.7828,14.415
			c-4.8271,10.8501-9.2668,21.8883-14.2711,32.6719c-11.6139-6.5211-22.9733-13.5071-34.5096-20.1943
			c-2.314-1.4172-5.0596-1.7492-7.6504-2.3693c-7.1964-1.6497-14.3928-3.3325-21.5892-4.9711
			c-3.5319-0.7529-6.2776-3.244-9.278-5.0707c-4.5946-3.1555-9.4771-5.9122-13.9279-9.2668
			c-2.4026-3.9969-4.2515-8.3036-6.4657-12.4001c-4.783-8.3922-7.0304-17.8803-10.0197-26.9921
			c-0.2878-6.1557,0.4318-12.3336,0.5536-18.4893c7.0415-1.9264,13.7728-5.0596,21.069-5.9564
			c5.5135-0.7861,10.9828-1.9375,16.5186-2.5022c5.7018-0.0664,11.3925,0.155,17.0833,0.3875
			C1090.2798,882.0283,1084.5891,886.0583,1079.3524,890.6309z"/>
		<path d="M1121.601,902.0012c5.7682,9.2668,2.4357,22.8293-7.1632,28.1436c-4.5171,3.0005-10.85,2.9561-15.4004,0.0222
			c-7.3071-3.9193-13.5071-11.8022-12.0347-20.4932c2.3361-11.3703,15.8433-17.9468,26.4829-13.8835
			C1116.962,896.6426,1119.5084,899.2444,1121.601,902.0012z"/>
		<path d="M1184.365,973.888c-0.0664,11.3482,3.6536,22.2535,7.3292,32.8823c2.8785,3.0446,6.4325,5.6464,10.0972,7.6946
			c6.0673,1.8932,11.8798,5.3807,18.4229,4.9156c11.9792,0.3876,24.3572,0.465,35.6058,5.1372
			c-7.1965,5.4915-14.4926,10.8722-21.1244,17.05c-7.1077,5.4913-11.8131,13.2524-17.5482,20.0392
			c-7.7832,9.3885-14.9907,19.2201-22.3199,28.963c0.1328-13.4408-1.24-26.9368,0.4207-40.3223
			c0.3876-4.4175,1.0297-8.8461,0.941-13.2747c-0.5867-5.0707-1.5719-10.0861-2.502-15.1014
			c-10.5179-5.9564-20.3716-12.9536-30.5131-19.519c4.7498-15.1124,9.1118-30.3467,13.5072-45.5588
			c5.6022-9.0454,11.625-17.8915,17.6921-26.6269C1191.9709,944.9473,1188.7159,959.5505,1184.365,973.888z"/>
		<path d="M1020.9724,978.3831c-1.5943,2.4578,0.2546,5.1481,1.2621,7.451c3.6647,2.7457,7.8164,4.816,11.7911,7.0858
			c22.0211,8.2039,45.5258,10.8057,68.5986,14.4482c13.5957,2.4025,27.4351,2.8232,41.1193,4.6501
			c-3.7089,7.5617-9.1451,15.7546-7.0082,24.5231c1.561,0.5536,3.1,1.6165,4.816,1.1515c9.92-1.5612,19.9286-2.7125,29.6161-5.425
			c0.9521,4.1187,2.9893,8.1265,2.4025,12.4775c-0.775,9.9642-1.0186,19.9507-1.2289,29.9482
			c-0.8082,13.2635,2.2476,26.4828,0.9189,39.7465c-0.8414,24.3351-6.355,48.194-13.3633,71.4329
			c-2.6017,8.0822-4.0189,16.6183-7.9603,24.2133c-2.0814,4.5283-4.4065,8.9679-6.3107,13.5846
			c-3.3879,9.9755-5.9896,20.2054-9.7982,30.0369c-3.0336,7.8276-4.1962,16.2197-6.8644,24.1691
			c-3.4099,9.1117-6.9307,18.1903-10.3517,27.302c-1.9707,12.3779,0.011,24.9662-0.5315,37.4326
			c-0.3099,12.1897,0.2104,24.3794,0.0997,36.569c0.8967,8.9347,3.0779,17.7032,4.174,26.6268
			c1.1293,9.7761,3.9082,19.2532,5.9232,28.8633c2.5021,12.5217,6.9529,24.5785,8.536,37.2996
			c-4.0078-2.1035-7.9824-4.2513-12.0015-6.3218c-8.2261-3.8528-14.5811-10.5289-21.9436-15.6882
			c-5.7128-4.5725-12.6104-7.8939-16.9503-13.9833c-7.0082-9.1671-15.7103-16.7953-23.7483-25.0214
			c-3.7642-3.2329-5.1371-8.1486-7.4954-12.3336c-2.9561-5.3696-4.2072-11.4034-6.2-17.1385
			c-1.1847-4.0743-3.0336-8.0378-3.2993-12.3114c-0.5646-7.7611-1.8046-15.5554-0.8192-23.3276
			c0.7307-5.5909,0.8192-11.2374,1.4946-16.8175c2.2917,7.4844,3.8086,15.1901,5.8567,22.752
			c0.8859,4.4396,3.5651,8.1707,5.569,12.1453c2.2255,3.9303,3.8529,8.3369,7.2297,11.47c3.7201,3.6868,7.252,7.5508,10.994,11.2266
			c4.0743,3.3767,8.6689,6.0449,12.9315,9.1671c2.4136,1.9264,5.4581,2.6018,8.3589,3.3878
			c1.4613-3.4653,3.3878-6.7314,4.6057-10.2743c0.5646-3.9968,0.4207-8.0488,0.8192-12.0458
			c0.7861-4.2513-1.4946-8.1042-2.6682-12.0236c-3.875-12.7985-11.337-24.0471-17.0831-36.0044
			c-3.3436-9.1781-6.344-18.4891-10.4625-27.3574c-3.3989-6.8864-4.6279-14.5146-6.2444-21.9325
			c0.5758-4.3511,0.3433-9.2889,3.3104-12.8319c4.2625-5.7017,8.1042-11.7024,12.5992-17.2159
			c14.3375-16.1864,28.2101-32.9597,39.3147-51.5598c3.5319-6.7646,8.2593-12.7874,13.1307-18.6221
			c-1.5723,10.5289-3.3768,21.0358-4.4618,31.6311c5.3585-7.7057,8.3257-16.7401,12.5328-25.0658
			c4.1187-7.927,6.2443-16.6292,9.1561-25.0215c2.3248-6.521,2.7124-13.4849,4.0188-20.2275
			c1.9154-8.6023,0.3986-17.4153,0.6421-26.1285c-0.8634-11.171-1.5057-22.475-4.4507-33.325
			c-3.8971-4.1407-8.9014-6.9751-14.6807-7.2629c-9.3331,14.869-21.3125,28.8855-24.8885,46.5222
			c-1.1182,4.2294-3.7643,7.8386-5.8236,11.6471c-1.7271-8.381-5.5688-16.6182-4.34-25.3314
			c0.4208-4.4618-0.1328-9.2224,2.0039-13.319c2.9451-6.355,5.4803-12.9092,8.824-19.076
			c3.5096-6.3107,6.3882-12.9535,8.7686-19.7736c-0.2657-2.8674-2.3583-5.3585-3.2993-8.0931
			c-5.6132,0.5867-11.2153,1.5831-16.4521,3.7753c-4.8936,2.1368-10.2521,2.5354-15.4778,3.2883
			c-10.2079,1.1735-20.0836,4.1296-30.0922,6.3217c-11.9349,3.6426-22.4861,10.4846-33.3472,16.4412
			c4.1185-5.7461,8.691-11.1489,12.9536-16.7733c2.17-3.1,5.6798-4.7164,8.7354-6.7535c6.7203-4.351,13.5957-8.4697,20.1611-13.0422
			c7.1632-5.2146,14.3486-10.407,22.165-14.592c-5.0154-3.4875-10.0197-7.0303-15.2786-10.1415
			c-4.8494-1.4061-9.9755-1.4061-14.88-2.5796c-7.0082-1.7715-13.8615-4.2072-21.0137-5.4472
			c-11.4146-2.8674-23.2831-1.5389-34.9193-2.325c-19.8069-1.2954-39.9459-1.0739-59.3652,3.4432
			c-4.6832,1.6497-8.9678,4.2514-13.6178,6.0118c8.2148-8.215,15.9318-17.0833,25.3978-23.9033
			c6.7757-5.6686,14.4705-10.075,22.0211-14.6031c6.1003-2.7568,12.1676-5.6464,18.4007-8.0711
			c11.8465-2.2917,23.8258-4.03,35.9268-3.72C1026.0212,968.3079,1022.9102,973.0466,1020.9724,978.3831z"/>
		<path d="M1267.2015,1050.9784c1.4724,4.1296,2.48,8.4143,3.8307,12.5883c0.775,2.8344,2.3029,5.7682,1.1625,8.7576
			c-1.7051,6.3328-2.8564,12.865-5.4139,18.9542c-3.6313,9.134-6.9418,18.4008-9.8203,27.8115
			c1.0848,12.1011,8.6577,22.1982,12.9756,33.2697c0.7861,3.9414,0.8636,7.9825,1.1958,11.9904
			c0.2657,7.0193,1.705,14.0276,0.7971,21.069c-3.1775-4.3179-4.6389-9.6544-8.0378-13.8171
			c-4.5615-5.5579-8.813-11.4147-12.4666-17.5925c-3.2881-10.4404-6.1556-21.0358-9.1339-31.5757
			c-1.4946-4.1296,0.5758-8.3701,1.0408-12.4998c1.4061-9.0122,4.0521-17.8472,5.2146-26.8594
			c-1.9153-1.4502-3.9856-2.6902-6.0006-3.9967c-7.13,3.4542-15.1237,4.0854-22.785,5.6907
			c2.8674-4.6831,5.9453-9.2335,8.8793-13.8726c3.2218-5.4691,8.3921-9.3331,12.6324-13.9388
			c5.1372-5.7682,12.3004-9.0122,18.5447-13.3522C1262.2303,1046.1069,1265.2307,1048.0999,1267.2015,1050.9784z"/>
		<path d="M954.8542,1144.7645c-2.6239,5.1261-5.6907,10.0087-8.4142,15.1014c7.3736-1.9375,14.9243-3.2549,22.0875-5.8678
			c8.8682-3.1,17.7808-6.0671,26.7929-8.7242c-5.735,7.6393-11.4147,15.4778-15.035,24.3572
			c0.3322,1.9486,0.8857,3.8639,1.3064,5.8346c9.0232-1.5389,16.9504-6.1447,25.4311-9.2667
			c-2.1035,4.351-4.6832,8.4475-6.9639,12.7211c-5.5579,12.3336-6.2,26.8813-1.0296,39.4475
			c2.3914,4.4064,4.9046,8.7463,7.2628,13.1638c5.89-2.9006,11.6693-6.0671,17.6811-8.7021
			c5.2146-1.8488,10.5621-3.2881,15.8765-4.7938c-3.5872,9.8536-7.2518,19.674-10.85,29.5276
			c-3.4655,12.9424-7.1411,26.1285-6.3108,39.6688c-0.5868,9.3223,1.1957,18.5004,2.6018,27.6676
			c1.9596,10.994,1.8157,22.2094,3.1,33.2808c-5.4472-8.9015-10.7393-17.9247-15.9429-26.9811
			c-2.1478-3.6647-3.3102-7.7832-4.8936-11.6915c-2.7125-7.2407-6.2664-14.1604-8.2925-21.6447
			c-3.3989-10.0529-3.5318-20.7921-4.174-31.2769c-8.3591-1.8932-16.5519-4.8383-25.1766-5.3364
			c-11.5475-0.6864-22.9068-2.8452-34.2772-4.8936c-7.7057-1.572-16.0756-0.6753-23.1614-4.5946
			c-10.5179-4.5725-20.7037-9.8757-30.823-15.2786c19.8733-2.8785,39.813,0.609,59.6087,2.325
			c12.4996-0.4208,25.6082,0.1993,37.2996-4.9045c1.4835-2.5465,2.6682-5.2369,3.9968-7.8276
			c-12.9869-7.8163-26.8705-14.2489-41.54-18.1239c-15.0129-0.5093-30.1033,0.775-45.0497-1.1957
			c-14.6031-0.9965-29.2286,0.332-43.8207,0.7197c6.1115-3.1112,12.5883-5.4141,18.8215-8.2484
			c5.4028-2.6571,11.5364-2.646,17.3378-3.72c11.2154-1.9375,22.5636-2.79,33.9008-3.6866
			c-3.2993-2.8455-6.4324-5.9565-10.1082-8.3147c-8.6135-1.3286-17.205-2.9451-25.8849-3.8197
			c-7.4069-1.0406-15.2232-0.1218-22.2094-3.255c-5.8236-2.2031-11.7911-4.03-17.5482-6.4325
			c16.5518-1.7936,33.2585-3.0889,49.2901-7.8275c9.1118-3.1997,18.5114-5.9342,26.9035-10.8057
			c16.563-14.6254,29.6604-32.6608,42.0161-50.8512C964.4751,1108.9485,962.0615,1127.6703,954.8542,1144.7645z"/>
		<path d="M1213.5936,1510.8306c16.3969,0.8969,32.5721,4.4508,48.2051,9.3444c6.0339,4.5725,8.9015,11.6692,11.3815,18.5558
			c0.62,8.7795,1.4613,17.5925,1.0739,26.4164c-0.2435,10.4736,0.0997,21.1576-2.7346,31.3322
			c-5.6243,1.229-11.2375,2.7347-16.9503,3.5208c-5.58-0.155-11.1489-0.5757-16.74-0.6643
			c-5.104,0.1661-9.4883-2.7567-14.1161-4.4507c-4.7275-2.2253-10.0972-3.3768-14.0719-6.9418
			c-3.5096-3.1332-7.6836-5.6243-10.4071-9.5436c-3.0447-4.2847-6.1335-8.525-9.278-12.7433
			c6.9751,2.0371,14.2821,3.244,20.7257,6.7535c6.056,2.7015,11.8354,6.0452,18.0465,8.3479
			c10.4625,1.9597,21.0247,3.3325,31.4872,5.2479c1.3617-4.5171,2.7235-9.0344,4.1295-13.5182
			c0.4651-1.7383,1.3729-3.5983,0.454-5.3254c-1.9264-5.1925-3.5428-10.4957-5.6133-15.6218
			c-14.9242-4.8604-30.7563-5.746-46.0793-8.9568c-9.3885-2.1146-19.0981-1.4946-28.5864-2.8674
			c-5.9896-1.8268-11.6803-4.5394-17.5925-6.6317c-1.6163-0.8083-3.9082-1.0852-4.4839-3.089
			c-2.3914-5.0376-4.8271-10.064-7.0304-15.168c-2.1478-6.1556-3.9082-12.4221-5.9785-18.5889
			c-1.5723-3.9082,1.0739-7.8054,1.8489-11.5918c7.0414,8.0269,13.8837,16.4633,22.8514,22.4528
			C1187.0774,1510.1553,1200.4407,1509.4467,1213.5936,1510.8306z"/>
	</g>
</g>
</svg>
